<?xml version="1.0" encoding="utf-8"?>
<!-- Generator: Adobe Illustrator 23.0.4, SVG Export Plug-In . SVG Version: 6.00 Build 0)  -->
<svg version="1.1" id="Ebene_1" xmlns="http://www.w3.org/2000/svg" xmlns:xlink="http://www.w3.org/1999/xlink" x="0px" y="0px"
	 viewBox="0 0 96.14 95.7" style="enable-background:new 0 0 96.14 95.7;" xml:space="preserve">
<style type="text/css">
	.st0{fill:#FFFFFF;}
	.st1{fill:#595958;}
	.st2{fill:none;}
	.st3{fill:#585857;}
	.st4{fill:#5A5A59;}
</style>
<g>
	<path class="st3" d="M69.14,88H14.19c-2.81,0-5.09-2.28-5.09-5.09V47.32c0-2.81,2.28-5.09,5.09-5.09h54.95
		c2.81,0,5.09,2.28,5.09,5.09V82.9C74.23,85.71,71.95,88,69.14,88z M14.19,44.23c-1.7,0-3.09,1.39-3.09,3.09V82.9
		c0,1.7,1.39,3.09,3.09,3.09h54.95c1.7,0,3.09-1.39,3.09-3.09V47.32c0-1.7-1.39-3.09-3.09-3.09H14.19z"/>
	<path class="st3" d="M46.2,77.91h-9.07c-0.22,0-0.42-0.09-0.56-0.26c-0.14-0.16-0.21-0.38-0.18-0.59l1.64-12.51
		C36.15,63.33,35,61.23,35,58.97c0-3.67,2.99-6.66,6.66-6.66s6.66,2.99,6.66,6.66c0,2.26-1.15,4.36-3.03,5.58l1.64,12.51
		c0.03,0.21-0.04,0.43-0.18,0.59C46.62,77.82,46.42,77.91,46.2,77.91z M37.99,76.41h7.36l-1.6-12.15c-0.04-0.31,0.11-0.61,0.38-0.76
		c1.66-0.91,2.69-2.64,2.69-4.53c0-2.84-2.31-5.16-5.16-5.16s-5.16,2.31-5.16,5.16c0,1.89,1.03,3.63,2.69,4.53
		c0.27,0.15,0.42,0.45,0.38,0.76L37.99,76.41z"/>
	<g>
		<path class="st3" d="M66.97,44.15h-7.96c-0.55,0-1-0.45-1-1v-13.2c0-9.01-7.33-16.34-16.34-16.34s-16.34,7.33-16.34,16.34v13.2
			c0,0.55-0.45,1-1,1h-7.96c-0.55,0-1-0.45-1-1v-13.2c0-14.51,11.8-26.31,26.31-26.31s26.31,11.8,26.31,26.31v13.2
			C67.97,43.71,67.53,44.15,66.97,44.15z M60.01,42.15h5.96v-12.2c0-13.4-10.9-24.31-24.31-24.31s-24.31,10.9-24.31,24.31v12.2h5.96
			v-12.2c0-10.12,8.23-18.34,18.34-18.34s18.34,8.23,18.34,18.34v12.2H60.01z"/>
	</g>
	<g>
		<g>
			<path class="st0" d="M67.57,59.24c0.07-0.11,0.23-0.11,0.3,0l9.11,15.78l9.04,15.65c0.1,0.17-0.02,0.38-0.22,0.38H67.73H49.51
				c-0.13,0-0.21-0.14-0.15-0.26l9.11-15.78L67.57,59.24z"/>
			<path class="st1" d="M85.78,92.05H49.49c-0.42,0-0.8-0.22-1.01-0.58c-0.21-0.36-0.21-0.81,0-1.17L66.7,58.74
				c0.42-0.72,1.61-0.72,2.03,0l18.14,31.43c0.22,0.39,0.22,0.87,0,1.26C86.65,91.81,86.23,92.05,85.78,92.05z M50.93,90.05h33.56
				L67.71,60.98L50.93,90.05z M68.43,59.74L68.43,59.74L68.43,59.74L68.43,59.74z"/>
		</g>
		<g>
			<g>
				<path class="st1" d="M67.7,84.67c0.67,0,1.16,0.49,1.16,1.16c0,0.64-0.49,1.16-1.16,1.16c-0.64,0-1.19-0.52-1.19-1.16
					C66.51,85.17,67.06,84.67,67.7,84.67z M67.2,81.32l-0.29-8.23v-3.53c0-0.32,0.23-0.38,0.43-0.38h0.72c0.2,0,0.38,0.17,0.38,0.38
					v3.51l-0.26,8.26c0,0.17-0.2,0.35-0.38,0.35h-0.23C67.38,81.67,67.2,81.49,67.2,81.32z"/>
				<path class="st4" d="M67.7,87.24c-0.78,0-1.44-0.65-1.44-1.41c0-0.78,0.64-1.41,1.44-1.41s1.41,0.61,1.41,1.41
					C69.11,86.62,68.49,87.24,67.7,87.24z M67.7,84.92c-0.53,0-0.94,0.4-0.94,0.91c0,0.49,0.43,0.91,0.94,0.91
					c0.52,0,0.91-0.39,0.91-0.91S68.22,84.92,67.7,84.92z M67.81,81.92h-0.23c-0.33,0-0.62-0.28-0.63-0.59l-0.29-8.22v-3.54
					c0-0.39,0.26-0.63,0.68-0.63h0.72c0.34,0,0.63,0.29,0.63,0.63v3.51l-0.26,8.26C68.44,81.63,68.13,81.92,67.81,81.92z
					 M67.35,69.43c-0.18,0-0.18,0.04-0.18,0.13v3.53l0.29,8.23c0,0.03,0.05,0.1,0.13,0.1h0.23c0.04,0,0.12-0.07,0.13-0.1l0.26-8.26
					v-3.5c0-0.07-0.06-0.13-0.13-0.13C68.08,69.43,67.35,69.43,67.35,69.43z"/>
			</g>
		</g>
	</g>
</g>
</svg>
