<?xml version="1.0" encoding="utf-8"?>
<!-- Generator: Adobe Illustrator 23.0.4, SVG Export Plug-In . SVG Version: 6.00 Build 0)  -->
<svg version="1.1" id="Ebene_1" xmlns="http://www.w3.org/2000/svg" xmlns:xlink="http://www.w3.org/1999/xlink" x="0px" y="0px"
	 viewBox="0 0 96.14 95.7" style="enable-background:new 0 0 96.14 95.7;" xml:space="preserve">
<style type="text/css">
	.st0{fill:#FFFFFF;}
	.st1{fill:#595958;}
	.st2{fill:none;}
	.st3{fill:#585857;}
	.st4{fill:#5A5A59;}
</style>
<g>
	<g>
		<circle class="st0" cx="48.16" cy="47.31" r="42.34"/>
		<path class="st1" d="M48.16,90.63c-23.89,0-43.32-19.43-43.32-43.32S24.27,3.99,48.16,3.99s43.32,19.43,43.32,43.32
			S72.04,90.63,48.16,90.63z M48.16,5.94C25.35,5.94,6.79,24.5,6.79,47.31s18.56,41.37,41.37,41.37s41.37-18.56,41.37-41.37
			S70.96,5.94,48.16,5.94z"/>
	</g>
	<g>
		<circle class="st0" cx="48.16" cy="47.31" r="34.23"/>
		<path class="st1" d="M48.16,82.28c-19.28,0-34.97-15.69-34.97-34.97s15.69-34.97,34.97-34.97s34.97,15.69,34.97,34.97
			C83.12,66.59,67.44,82.28,48.16,82.28z M48.16,13.81c-18.47,0-33.5,15.03-33.5,33.5s15.03,33.5,33.5,33.5s33.5-15.03,33.5-33.5
			S66.63,13.81,48.16,13.81z"/>
	</g>
	<g>
		<line class="st2" x1="51.12" y1="46.89" x2="24.53" y2="50.97"/>
		<path class="st1" d="M24.52,51.95c-0.47,0-0.89-0.35-0.97-0.83c-0.08-0.53,0.28-1.03,0.82-1.11l26.59-4.08
			c0.53-0.09,1.03,0.28,1.11,0.82c0.08,0.53-0.28,1.03-0.82,1.11l-26.59,4.08C24.62,51.95,24.57,51.95,24.52,51.95z"/>
	</g>
	<g>
		<line class="st2" x1="67.14" y1="28.35" x2="44.72" y2="50.69"/>
		<path class="st1" d="M44.72,51.67c-0.25,0-0.5-0.1-0.69-0.29c-0.38-0.38-0.38-1,0-1.38l22.42-22.34c0.38-0.38,1-0.38,1.38,0
			s0.38,1,0,1.38L45.41,51.38C45.22,51.57,44.97,51.67,44.72,51.67z"/>
	</g>
	<g>
		<circle class="st0" cx="48.16" cy="47.31" r="1.46"/>
		<path class="st1" d="M48.16,49.51c-1.21,0-2.2-0.99-2.2-2.2s0.99-2.2,2.2-2.2s2.2,0.99,2.2,2.2
			C50.35,48.52,49.37,49.51,48.16,49.51z M48.16,46.58c-0.4,0-0.73,0.33-0.73,0.73c0,0.4,0.33,0.73,0.73,0.73
			c0.4,0,0.73-0.33,0.73-0.73C48.88,46.91,48.56,46.58,48.16,46.58z"/>
	</g>
</g>
</svg>
