<svg xmlns="http://www.w3.org/2000/svg" width="1047" height="287" viewBox="0 0 1047 287">
    <g fill="#FFFFFE" fill-rule="evenodd">
        <path d="M408.741 134.645l-.707-.344c-7.789-3.792-12.196-6.17-12.196-10.938 0-1.392.655-5.93 9.089-5.93 6.392 0 14.054 4.225 14.134 4.269a5.136 5.136 0 0 0 2.493.623 5.621 5.621 0 0 0 4.963-2.936l1.462-2.925c1.467-2.693.75-6.159-1.585-7.714-4.253-2.911-12.126-6.021-21.467-6.021-18.409 0-25.092 12.45-25.092 20.818 0 14.512 14.321 21.537 22.005 25.307 10.761 5.379 15.518 7.989 15.518 13.518 0 4.436-4.249 7.416-10.574 7.416-8.806 0-16.44-6.104-16.516-6.166l-.14-.101c-1.058-.674-2.193-1.029-3.285-1.029-1.603 0-2.99.75-3.821 2.08a49.92 49.92 0 0 0-.958 1.737c-.532.993-1.194 2.229-1.605 2.847l-.131.24c-.789 1.842-.163 4.435 1.39 5.681 4.818 3.723 12.66 8.672 25.066 8.672 7.503 0 14.433-2.422 19.512-6.822 4.845-4.195 7.623-9.907 7.623-15.671 0-14.568-12.805-20.693-25.178-26.611M517.468 168.674c-12.7 0-22.649-11.255-22.649-25.622 0-14.055 9.949-25.064 22.649-25.064 12.7 0 22.648 11.009 22.648 25.064 0 14.367-9.948 25.622-22.648 25.622zm0-65.945c-21.211 0-38.467 18.089-38.467 40.323 0 22.441 17.256 40.697 38.467 40.697 21.21 0 38.466-18.256 38.466-40.697 0-22.234-17.256-40.323-38.466-40.323zM648.072 102.729c-12.246 0-21.453 5.885-25.201 8.741l-1.022-3.517c-.541-2.171-2.114-3.367-4.426-3.367h-3.531c-2.679 0-5.03 2.351-5.03 5.03v67.246c0 2.678 2.351 5.029 5.03 5.029h5.759c2.679 0 5.03-2.351 5.03-5.029v-48.973c1.974-1.89 10.855-9.715 22.463-9.715 12.578 0 15.218 10.6 15.218 19.491v39.197c0 2.678 2.35 5.029 5.029 5.029h5.944c2.68 0 5.03-2.351 5.03-5.029v-39.197c0-23.182-10.192-34.936-30.293-34.936M770.93 102.729c-12.24 0-21.45 5.885-25.2 8.741l-1.02-3.519c-.55-2.169-2.12-3.365-4.43-3.365h-3.53c-2.68 0-5.03 2.351-5.03 5.03v67.246c0 2.678 2.35 5.029 5.03 5.029h5.76c2.68 0 5.03-2.351 5.03-5.029v-48.973c1.97-1.89 10.85-9.715 22.46-9.715 12.58 0 15.22 10.6 15.22 19.491v39.197c0 2.678 2.35 5.029 5.03 5.029h5.94c2.68 0 5.03-2.351 5.03-5.029v-39.197c0-23.182-10.19-34.936-30.29-34.936M892.48 117.06c9.59 0 17.88 7.686 19.16 17.434h-40.83c1.95-10.199 10.8-17.434 21.67-17.434zm0-14.331c-21.97 0-37.91 17.036-37.91 40.509s15.94 40.511 37.91 40.511c12.57 0 23.07-4.778 28.19-8.836 1.56-1.142 2.33-2.169 2.49-3.333.21-1.496-.71-2.677-1.43-3.608-.56-.748-1.08-1.449-1.59-2.151-.51-.692-1.02-1.384-1.56-2.103-.32-.445-1.31-1.799-2.99-1.799-1.15 0-2.2.61-3.52 1.38l-.68.392c-5.93 3.603-11.69 5.355-17.61 5.355-11.43 0-21.73-9.531-23.24-21.149h51.84c2.5 0 4.58-1.94 4.83-4.448.21-1.419.39-3.91.39-5.227 0-20.566-14.77-35.493-35.12-35.493zM1016.31 102.729c-12.25 0-21.46 5.885-25.2 8.741l-1.03-3.517c-.54-2.171-2.11-3.367-4.42-3.367h-3.53c-2.68 0-5.03 2.351-5.03 5.03v67.246c0 2.678 2.35 5.029 5.03 5.029h5.76c2.67 0 5.03-2.351 5.03-5.029v-48.973c1.97-1.89 10.85-9.715 22.46-9.715 12.58 0 15.21 10.6 15.21 19.491v39.197c0 2.678 2.36 5.029 5.03 5.029h5.95c2.68 0 5.03-2.351 5.03-5.029v-39.197c0-23.182-10.19-34.936-30.29-34.936M147.311 276.129c-70.489 0-127.63-57.138-127.63-127.62S76.822 20.89 147.311 20.89c70.487 0 127.628 57.137 127.628 127.619s-57.141 127.62-127.628 127.62zM143.878.206C64.923.206.919 64.205.919 143.154c0 78.95 64.004 142.949 142.959 142.949 78.954 0 142.96-63.999 142.96-142.949 0-78.949-64.006-142.948-142.96-142.948z"/>
    </g>
</svg>
